<svg xmlns="http://www.w3.org/2000/svg" viewBox="0 0 25.6 21.9"><defs><style>.cls-1{fill:#555;}</style></defs><title>Fichier 3</title><g id="Calque_2" data-name="Calque 2"><g id="Calque_1-2" data-name="Calque 1"><path class="cls-1" d="M24,15.7H1.6A1.58,1.58,0,0,1,0,14.1V1.6A1.58,1.58,0,0,1,1.6,0H24a1.58,1.58,0,0,1,1.6,1.6V14.1A1.58,1.58,0,0,1,24,15.7ZM1.6,1a.65.65,0,0,0-.6.6V14.1a.65.65,0,0,0,.6.6H24a.65.65,0,0,0,.6-.6V1.6A.65.65,0,0,0,24,1Z"/><path class="cls-1" d="M17,19H8.6l1.3-4.2h5.9ZM9.9,18h5.7l-.7-2.2H10.5Z"/><path class="cls-1" d="M20,21.9H4.3L6,19.5H18.4ZM5.4,21.3H18.8L18,20.1H6.2Z"/><rect class="cls-1" x="7.7" y="20.4" width="8.8" height="0.2"/><rect class="cls-1" x="7.3" y="20.9" width="9.6" height="0.2"/><path class="cls-1" d="M22.3,21.7a.68.68,0,0,1-.7-.7V20A.7.7,0,1,1,23,20v1A.75.75,0,0,1,22.3,21.7Zm0-2a.27.27,0,0,0-.3.3v1a.3.3,0,0,0,.6,0V20A.45.45,0,0,0,22.3,19.7Z"/><path class="cls-1" d="M14.6,5H2.3V2.9H14.6ZM2.7,4.6H14.2V3.3H2.7V4.6Z"/><path class="cls-1" d="M18.1,10.1H8.9V8.8h9.2ZM9.3,9.7h8.4V9.2H9.3Z"/><rect class="cls-1" x="3.3" y="7.7" width="10.2" height="0.4"/><rect class="cls-1" x="5.4" y="6" width="10.2" height="0.4"/><rect class="cls-1" x="3.3" y="12.4" width="10.2" height="0.4"/><path class="cls-1" d="M23.3,6.9H20.4V3.2h2.9V6.9Zm-2.5-.4h2.1V3.7H20.8Z"/><rect class="cls-1" x="17.9" y="11.3" width="3.2" height="0.3"/></g></g></svg>