<svg xmlns="http://www.w3.org/2000/svg" viewBox="0 0 27.9 21.5"><defs><style>.cls-1{fill:#555;}</style></defs><title>Fichier 2</title><g id="Calque_2" data-name="Calque 2"><g id="Calque_1-2" data-name="Calque 1"><path class="cls-1" d="M1,21.5l1.7-3.9H1.6A1.58,1.58,0,0,1,0,16V7.2A1.58,1.58,0,0,1,1.6,5.6H18.3a1.58,1.58,0,0,1,1.6,1.6V16a1.58,1.58,0,0,1-1.6,1.6H8.9Zm.6-15a.79.79,0,0,0-.8.8v8.8a.79.79,0,0,0,.8.8H4l-1.3,3,6.1-3h9.6a.79.79,0,0,0,.8-.8V7.3a.79.79,0,0,0-.8-.8Z"/><path class="cls-1" d="M26.3,0H8.3A1.56,1.56,0,0,0,6.7,1.5V5.7h.8V1.5A.71.71,0,0,1,8.3.8h18a.77.77,0,0,1,.8.7V12.3a.71.71,0,0,1-.8.7H24.7l.9,2.8L20.4,13h-.5v.8h.3L27,17.5l-1.2-3.7h.5a1.56,1.56,0,0,0,1.6-1.5V1.4A1.71,1.71,0,0,0,26.3,0Z"/><rect class="cls-1" x="4.3" y="8.8" width="8.8" height="0.3"/><rect class="cls-1" x="11.2" y="2.3" width="8.8" height="0.4"/><rect class="cls-1" x="8.7" y="14.1" width="8.8" height="0.3"/><rect class="cls-1" x="4.3" y="11.6" width="8.8" height="0.4"/><rect class="cls-1" x="6.8" y="9.8" width="8.8" height="0.3"/><rect class="cls-1" x="22" y="7.4" width="3.2" height="0.3"/><rect class="cls-1" x="21.6" y="9.6" width="2.4" height="0.4"/><rect class="cls-1" x="16.9" y="4.4" width="8.8" height="0.3"/></g></g></svg>