<svg xmlns="http://www.w3.org/2000/svg" viewBox="0 0 14.96 21.2"><defs><style>.cls-1{fill:#555;}</style></defs><title>Fichier 1</title><g id="Calque_2" data-name="Calque 2"><g id="Calque_1-2" data-name="Calque 1"><path class="cls-1" d="M14.9,0H1.66A1.66,1.66,0,0,0,0,1.62L0,20.24H2.3l.14-.8H.86l0-17.8A.85.85,0,0,1,1.68.82H14.1l0,17.8a.85.85,0,0,1-.86.82H5.82l.28.8h7.2A1.66,1.66,0,0,0,15,18.62Z"/><polygon class="cls-1" points="4.6 20.22 4.32 19.42 3.9 19.42 3.78 20.22 4.6 20.22"/><circle class="cls-1" cx="4.02" cy="15.94" r="0.56"/><path class="cls-1" d="M3.66,18a.21.21,0,0,0-.14-.12.19.19,0,0,0-.18,0,.36.36,0,0,1-.42,0l-.06,0L2.34,21l.08,0,.6-.32.4.54,0,0,.5-3A.42.42,0,0,1,3.66,18Z"/><path class="cls-1" d="M5.1,17.9a.4.4,0,0,1-.42,0,.2.2,0,0,0-.18,0,.21.21,0,0,0-.14.12.42.42,0,0,1-.3.22l1,2.86,0,0,.3-.6.64.22.08,0-1-2.76S5.12,17.88,5.1,17.9Z"/><path class="cls-1" d="M6,15.94a.21.21,0,0,0-.14-.2.43.43,0,0,1-.22-.24.37.37,0,0,1,.06-.32.21.21,0,0,0,0-.24.19.19,0,0,0-.22-.1.39.39,0,0,1-.32-.1.37.37,0,0,1-.1-.32A.32.32,0,0,0,5,14.2a.21.21,0,0,0-.24,0,.38.38,0,0,1-.32.06.33.33,0,0,1-.24-.22.24.24,0,0,0-.2-.14.19.19,0,0,0-.2.14.43.43,0,0,1-.24.22.44.44,0,0,1-.32-.06.21.21,0,0,0-.24,0,.19.19,0,0,0-.1.22.39.39,0,0,1-.1.32.37.37,0,0,1-.32.1c-.1,0-.16,0-.22.1a.21.21,0,0,0,0,.24.38.38,0,0,1,.06.32.3.3,0,0,1-.22.24.24.24,0,0,0-.14.2.19.19,0,0,0,.14.2.43.43,0,0,1,.22.24.37.37,0,0,1-.06.32.21.21,0,0,0,0,.24.19.19,0,0,0,.22.1.39.39,0,0,1,.32.1.37.37,0,0,1,.1.32.32.32,0,0,0,.1.22.21.21,0,0,0,.24,0,.42.42,0,0,1,.22-.08.18.18,0,0,1,.1,0,.33.33,0,0,1,.24.22A.24.24,0,0,0,4,18a.21.21,0,0,0,.2-.14.43.43,0,0,1,.24-.22.37.37,0,0,1,.32.06.21.21,0,0,0,.24,0,.19.19,0,0,0,.1-.22.39.39,0,0,1,.1-.32.37.37,0,0,1,.32-.1.29.29,0,0,0,.22-.1.21.21,0,0,0,0-.24.38.38,0,0,1-.06-.32.3.3,0,0,1,.22-.24A.21.21,0,0,0,6,15.94Zm-2,1.2a1.2,1.2,0,1,1,1.2-1.2A1.2,1.2,0,0,1,4,17.14Z"/><rect class="cls-1" x="3.76" y="4.08" width="7.04" height="0.38"/><rect class="cls-1" x="5.72" y="7.64" width="5.12" height="0.26"/><rect class="cls-1" x="5.38" y="12" width="5.12" height="0.26"/><rect class="cls-1" x="6.16" y="10.72" width="5.12" height="0.26"/><rect class="cls-1" x="5.02" y="9.66" width="5.12" height="0.26"/><rect class="cls-1" x="5.84" y="8.82" width="5.12" height="0.26"/><rect class="cls-1" x="7.94" y="17.12" width="3.2" height="0.26"/></g></g></svg>