<svg xmlns="http://www.w3.org/2000/svg" viewBox="0 0 30.82 21.54"><defs><style>.cls-1{fill:#555;}</style></defs><title>Fichier 5</title><g id="Calque_2" data-name="Calque 2"><g id="Calque_1-2" data-name="Calque 1"><rect class="cls-1" x="12.34" y="2.96" width="13.52" height="0.38"/><rect class="cls-1" x="14.42" y="7.2" width="10.24" height="0.38"/><rect class="cls-1" x="16.58" y="8.44" width="10.24" height="0.38"/><rect class="cls-1" x="15.7" y="9.7" width="10.24" height="0.38"/><rect class="cls-1" x="16.78" y="10.94" width="10.24" height="0.38"/><rect class="cls-1" x="15.7" y="12.38" width="10.24" height="0.38"/><path class="cls-1" d="M8.94,19.42H.5V5.68a.4.4,0,0,1,.06-.22H10.5a.4.4,0,0,1,.06.22v5h.52v-5a1,1,0,0,0-1-1H1a1,1,0,0,0-1,1V19.42a1,1,0,0,0,1,1h8Z"/><path class="cls-1" d="M14.54,17.54v.36H18a.12.12,0,0,1,0,.24H14.54v1.1H29.36a1.59,1.59,0,0,0,1.46-1.72H14.54Z"/><path class="cls-1" d="M27.82,0H3.66A1.58,1.58,0,0,0,2.08,1.58V4.7H3V1.56A.67.67,0,0,1,3.66.88H27.8a.67.67,0,0,1,.68.68V15.7a.67.67,0,0,1-.68.68H14.52v.9H27.8a1.58,1.58,0,0,0,1.58-1.58V1.56A1.56,1.56,0,0,0,27.82,0Z"/><path class="cls-1" d="M13.56,21.54H9.92a1,1,0,0,1-1-1v-8.9a1,1,0,0,1,1-1h3.64a1,1,0,0,1,1,1v8.88A1,1,0,0,1,13.56,21.54ZM9.92,11.18a.49.49,0,0,0-.48.48v8.88a.49.49,0,0,0,.48.48h3.64a.49.49,0,0,0,.48-.48V11.66a.49.49,0,0,0-.48-.48Z"/><rect class="cls-1" x="1.58" y="8.04" width="7.04" height="0.38"/><rect class="cls-1" x="2.08" y="11.6" width="5.12" height="0.26"/><rect class="cls-1" x="1.74" y="15.96" width="5.12" height="0.26"/><rect class="cls-1" x="2.54" y="14.36" width="5.12" height="0.26"/><rect class="cls-1" x="1.38" y="13.76" width="5.12" height="0.26"/><rect class="cls-1" x="2.22" y="12.76" width="5.12" height="0.26"/><rect class="cls-1" x="10.14" y="12.24" width="3.2" height="0.26"/><rect class="cls-1" x="10.06" y="15" width="2.56" height="0.2"/><rect class="cls-1" x="10.06" y="18.68" width="2.56" height="0.2"/><rect class="cls-1" x="10.64" y="17.82" width="2.56" height="0.2"/><rect class="cls-1" x="10.32" y="17.28" width="2.56" height="0.2"/><rect class="cls-1" x="10.16" y="15.96" width="2.56" height="0.2"/><rect class="cls-1" x="10.46" y="15.48" width="2.56" height="0.2"/></g></g></svg>