<svg xmlns="http://www.w3.org/2000/svg" viewBox="0 0 27.08 21.4" ><defs><style>.cls-1{fill:#555;}</style></defs><title>Fichier 4</title><g id="Calque_2" data-name="Calque 2"><g id="Calque_1-2" data-name="Calque 1"><path class="cls-1" d="M6,21.4a2.34,2.34,0,0,1-1.1-.26A2.52,2.52,0,0,1,3.58,19.7L.14,9.76A2.51,2.51,0,0,1,1.7,6.56L20.3.14A2.51,2.51,0,0,1,23.5,1.7l3.44,9.94a2.46,2.46,0,0,1-.12,1.92,2.52,2.52,0,0,1-1.44,1.28L6.78,21.26A2.28,2.28,0,0,1,6,21.4ZM21.14.8a1.84,1.84,0,0,0-.56.1L2,7.32A1.7,1.7,0,0,0,.92,9.5l3.44,9.94a1.64,1.64,0,0,0,.88,1,1.78,1.78,0,0,0,1.32.08l18.6-6.42a1.64,1.64,0,0,0,1-.88,1.78,1.78,0,0,0,.08-1.32L22.78,1.94A1.79,1.79,0,0,0,21.14.8Z"/><path class="cls-1" d="M7.92,15.68A4.81,4.81,0,0,1,6,15.3a4.41,4.41,0,0,1-1.46-1,4.63,4.63,0,0,1-.92-1.46,5.09,5.09,0,0,1-.32-1.76A5.7,5.7,0,0,1,3.64,9.2a4.44,4.44,0,0,1,.94-1.5A4.41,4.41,0,0,1,7.84,6.34a5.13,5.13,0,0,1,1.5.22,6.09,6.09,0,0,1,1.14.5l.18.1L10,8.72l-.24-.18a4.07,4.07,0,0,0-.84-.44,2.54,2.54,0,0,0-1-.2,2.59,2.59,0,0,0-1.1.24,3,3,0,0,0-.92.66,3.61,3.61,0,0,0-.64,1A3,3,0,0,0,5,11a3.47,3.47,0,0,0,.2,1.22,3.18,3.18,0,0,0,.58,1,2.47,2.47,0,0,0,.92.64,3,3,0,0,0,1.22.24A3,3,0,0,0,9,13.9a3.69,3.69,0,0,0,.8-.42L10,13.3l.7,1.48-.18.12a5.4,5.4,0,0,1-.62.34,4.94,4.94,0,0,1-.92.32A4.29,4.29,0,0,1,7.92,15.68ZM7.86,6.8a3.91,3.91,0,0,0-1.62.32A3.85,3.85,0,0,0,5,8a4.22,4.22,0,0,0-.84,1.34,4.75,4.75,0,0,0-.3,1.7,4.52,4.52,0,0,0,.28,1.58,3.51,3.51,0,0,0,.82,1.3,4,4,0,0,0,1.3.9,4.26,4.26,0,0,0,1.72.34A4.24,4.24,0,0,0,9,15a5.58,5.58,0,0,0,.82-.28l.38-.2L9.9,14a5.06,5.06,0,0,1-.66.32A3.54,3.54,0,0,1,8,14.52a3.6,3.6,0,0,1-1.42-.28,3.2,3.2,0,0,1-1.08-.76,3.27,3.27,0,0,1-.68-1.14A3.93,3.93,0,0,1,4.56,11a3.56,3.56,0,0,1,.26-1.4,3.84,3.84,0,0,1,.72-1.12,3.2,3.2,0,0,1,1.08-.76,3.16,3.16,0,0,1,1.3-.28,3.09,3.09,0,0,1,1.22.24A5.39,5.39,0,0,1,9.82,8l.28-.64A4.28,4.28,0,0,0,9.24,7,6.05,6.05,0,0,0,7.86,6.8Z"/><path class="cls-1" d="M13,15.58H11.4V6.42H14a4.12,4.12,0,0,1,1.72.34,2.78,2.78,0,0,1,1.14,1,3,3,0,0,1,.4,1.58,3.92,3.92,0,0,1-.16,1.08,2.93,2.93,0,0,1-.54,1,2.78,2.78,0,0,1-1,.72,3.5,3.5,0,0,1-1.44.26h-1v3.2Zm-1.16-.48h.68V11.92h1.52a3.13,3.13,0,0,0,1.24-.22,2,2,0,0,0,.8-.58,2.55,2.55,0,0,0,.46-.82,3,3,0,0,0,.14-.94A2.49,2.49,0,0,0,16.38,8a2,2,0,0,0-.94-.82,3.49,3.49,0,0,0-1.52-.3H11.84V15.1Zm2.18-3.84H12.54V7.54h1.58a2,2,0,0,1,.88.18,1.94,1.94,0,0,1,.6.44,1.46,1.46,0,0,1,.32.6,2.35,2.35,0,0,1,.1.62,2.08,2.08,0,0,1-.1.58,1.84,1.84,0,0,1-.32.62,1.71,1.71,0,0,1-.62.5A2,2,0,0,1,14.06,11.26Zm-1-.48h1a1.58,1.58,0,0,0,.74-.14,1.13,1.13,0,0,0,.44-.36,1.46,1.46,0,0,0,.24-.46,2.06,2.06,0,0,0,.08-.44,1.34,1.34,0,0,0-.08-.48.89.89,0,0,0-.24-.42,1.25,1.25,0,0,0-.44-.32A1.66,1.66,0,0,0,14.14,8H13Z"/><path class="cls-1" d="M19.38,15.58H17.74V6.42h5.62V8h-4V10.3h3.5v1.6h-3.5v3.68ZM18.2,15.1h.68V11.42h3.5v-.64H18.9V7.54h4V6.9H18.22v8.2Z"/><rect class="cls-1" x="16.66" y="5.32" width="3.2" height="0.26"/><rect class="cls-1" x="5.08" y="18.96" width="3.2" height="0.26"/><rect class="cls-1" x="8.24" y="17.6" width="3.2" height="0.26"/><rect class="cls-1" x="5.88" y="16.52" width="3.2" height="0.26"/><rect class="cls-1" x="13.96" y="4.36" width="3.2" height="0.26"/><rect class="cls-1" x="19.08" y="3.9" width="3.2" height="0.26"/></g></g></svg>