<svg xmlns="http://www.w3.org/2000/svg" width="760.277" height="87.72" viewBox="0 0 760.277 87.72">
  <g id="Group_112" data-name="Group 112" transform="translate(25.187 -204.453)">
    <g id="Group_34" data-name="Group 34">
      <g id="Group_33" data-name="Group 33">
        <path id="Path_75" data-name="Path 75" d="M308.362,265.042q-2.17-.227-5.607-.225h-13.7v26.225H276.664V230.585q1.219.091,2.8.135l3.347.09q3.437.092,7.145.093,11.124,0,21.253-.363a89.4,89.4,0,0,0-.5,10.627,4.793,4.793,0,0,0,.09,1.086l-.09.135a25.716,25.716,0,0,0-6.693-.678H289.053v12.435h13.2a34.9,34.9,0,0,0,5.968-.273Z" fill="#20aee9"/>
        <path id="Path_76" data-name="Path 76" d="M324.425,283.9a28.444,28.444,0,0,1-6.489-9.449,30.273,30.273,0,0,1-2.373-12.1,35.033,35.033,0,0,1,2.214-12.458,31.585,31.585,0,0,1,6.332-10.354,30.367,30.367,0,0,1,9.947-7.123,31.3,31.3,0,0,1,13.068-2.643q12.482,0,21.027,7.868,9.133,8.406,9.134,22.7,0,13.836-9.4,23.014a30.63,30.63,0,0,1-13.792,7.778,36.2,36.2,0,0,1-9.2,1.041A29.5,29.5,0,0,1,334.079,290,29.181,29.181,0,0,1,324.425,283.9Zm3.708-22.157a20.77,20.77,0,0,0,1.4,7.734,18.053,18.053,0,0,0,3.89,6.06,18.345,18.345,0,0,0,13.61,5.334q7.912,0,12.706-5.109,4.883-5.289,4.884-14.426,0-8.591-4.657-14.333-5.021-6.147-13.747-6.151a16.274,16.274,0,0,0-13.429,6.24Q328.132,252.924,328.133,261.74Z" fill="#20aee9"/>
        <path id="Path_77" data-name="Path 77" d="M404.971,267.666q-1.357.092-2.894.09t-4.567-.228v23.514H385.528V230.585a125.061,125.061,0,0,1,15.555-.812q12.568,0,18.742,4.634T426,248.718a17.041,17.041,0,0,1-5.652,12.843,19.856,19.856,0,0,1-4.251,2.983l9.224,19.446q2.713,6.012,4.16,7.142l-.226.228q-4.386-.721-13.792.045Zm-3.029-27.224a41.809,41.809,0,0,0-4.432.228v17.271a37.1,37.1,0,0,0,5.2.318,20.6,20.6,0,0,0,5.019-.52,10.21,10.21,0,0,0,3.528-1.606q3.209-2.394,3.21-7.187t-3.346-6.738Q408,240.446,401.942,240.442Z" fill="#20aee9"/>
        <path id="Path_78" data-name="Path 78" d="M448.3,291.312a82.659,82.659,0,0,0-8.366-.27h-3.618V230.72q2.895.183,6.376.183a23.026,23.026,0,0,0,4.928-.363l15.194,25.821,14.606-25.821a27.168,27.168,0,0,0,5.516.363q4.071,0,6.964-.183v60.322h-3.618a82.61,82.61,0,0,0-8.364.27V250.8l-14.788,26.453L448.3,252.925Z" fill="#20aee9"/>
        <path id="Path_79" data-name="Path 79" d="M506.69,291.4q-3.893-.366-9.088-.363h-3.573L513.7,235.92a24.8,24.8,0,0,0,1.31-4.317,3.287,3.287,0,0,0-.045-.745l.045-.093q2.938.14,6.243.138,2.708,0,6.513-.093l.045.093a1.068,1.068,0,0,0-.09.495,20.661,20.661,0,0,0,1.356,4.57l20.078,55.209c-.6-.029-1.317-.045-2.126-.045l-2.351-.09h-9.043L531.38,278.02H510.942Zm21.164-24.237-6.828-21.026-6.647,21.026Z" fill="#20aee9"/>
        <path id="Path_80" data-name="Path 80" d="M574.756,291.312q-2.168-.27-11.17-.27h-1.445V241.033h-8.954q-3.978,0-4.7.4a9.172,9.172,0,0,0-1.131.726l-.138-.048V230.54l.138-.134q1.488.495,8.048.5h28.352q3.978,0,4.7-.407a9.833,9.833,0,0,0,1.131-.723l.138.045v11.574l-.138.135q-1.489-.5-8.048-.494h-6.783Z" fill="#20aee9"/>
        <path id="Path_81" data-name="Path 81" d="M597.465,230.72q4.524.183,5.473.183h3.256a16.393,16.393,0,0,0,3.841-.363l-.045,60.5H597.465Z" fill="#20aee9"/>
        <path id="Path_82" data-name="Path 82" d="M628.54,283.9a28.468,28.468,0,0,1-6.487-9.449,30.273,30.273,0,0,1-2.373-12.1,35.013,35.013,0,0,1,2.216-12.458,31.613,31.613,0,0,1,6.33-10.354,30.376,30.376,0,0,1,9.949-7.123,31.286,31.286,0,0,1,13.068-2.643q12.476,0,21.025,7.868,9.135,8.406,9.134,22.7,0,13.836-9.406,23.014a30.622,30.622,0,0,1-13.791,7.778,36.211,36.211,0,0,1-9.2,1.041A30.88,30.88,0,0,1,628.54,283.9Zm3.71-22.157a20.691,20.691,0,0,0,1.4,7.734,18.013,18.013,0,0,0,3.886,6.06,18.349,18.349,0,0,0,13.61,5.334q7.916,0,12.709-5.109,4.884-5.289,4.884-14.426,0-8.591-4.66-14.333-5.019-6.147-13.745-6.151a16.285,16.285,0,0,0-13.431,6.24Q632.249,252.924,632.25,261.74Z" fill="#20aee9"/>
        <path id="Path_83" data-name="Path 83" d="M690.051,291.042a19.047,19.047,0,0,0,.273-3.346V230.9h9.044l23.964,37.71V233.977a6.267,6.267,0,0,0-.449-3.074H735.09a32.157,32.157,0,0,0-.225,3.979v56.16h-9.407l-23.6-36.219v36.219Z" fill="#20aee9"/>
      </g>
    </g>
    <g id="Group_39" data-name="Group 39">
      <path id="Path_84" data-name="Path 84" d="M77.982,279.064a9.752,9.752,0,0,0,3.936-.549l.183.045-.458,11.486H47.369V228.865q1.236.093,2.745.137l3.2.092q3.2.093,6.955.091,10.478,0,20.729-.366a90.706,90.706,0,0,0-.5,10.754,4.813,4.813,0,0,0,.092,1.1l-.092.137a25.771,25.771,0,0,0-6.772-.686H59.312v11.669H70.157a35.662,35.662,0,0,0,6.041-.275l.137,11.3q-2.2-.228-5.674-.229H59.312v16.474Z" fill="#2e518d"/>
      <path id="Path_85" data-name="Path 85" d="M104.459,291.19A78.017,78.017,0,0,1,90.5,290V228.774a118.02,118.02,0,0,1,14.026-.733,45.3,45.3,0,0,1,14.46,2.174,29.5,29.5,0,0,1,10.822,6.2q8.786,8.055,8.786,22.56,0,16.245-9.793,24.665Q120.018,291.189,104.459,291.19ZM102.4,280.025a32.7,32.7,0,0,0,5.949.549,19.973,19.973,0,0,0,6.406-1.167,15.5,15.5,0,0,0,5.949-3.638q5.4-5.217,5.4-15.192,0-16.381-11.943-20.135a30.467,30.467,0,0,0-9.106-1.235h-1.236c-.457,0-.931.016-1.418.046Z" fill="#2e518d"/>
      <path id="Path_86" data-name="Path 86" d="M177.977,279.064a9.743,9.743,0,0,0,3.935-.549l.183.045-.457,11.486H147.364V228.865q1.234.093,2.745.137l3.2.092q3.2.093,6.956.091,10.478,0,20.729-.366a90.706,90.706,0,0,0-.5,10.754,4.883,4.883,0,0,0,.091,1.1l-.091.137a25.774,25.774,0,0,0-6.773-.686H159.307v11.669h10.845a35.646,35.646,0,0,0,6.04-.275l.138,11.3q-2.2-.228-5.675-.229H159.307v16.474Z" fill="#2e518d"/>
      <path id="Path_87" data-name="Path 87" d="M198.551,290.046q-6.728,0-8.923.275v-61.41a23.443,23.443,0,0,0,4.553.274q3.454,0,8.031-.183v50.062h9.472a62.484,62.484,0,0,0,6.589-.275q-.321,10.709-.32,11.12v.457q-4.485-.319-15.055-.32Z" fill="#2e518d"/>
      <g id="Group_35" data-name="Group 35">
        <path id="Path_88" data-name="Path 88" d="M238.193,246.517l.013-17.7a16.568,16.568,0,0,1-3.889.366h-3.295q-.962,0-5.537-.183v8.829A90.075,90.075,0,0,0,238.193,246.517Z" fill="#20aee9"/>
        <path id="Path_89" data-name="Path 89" d="M225.485,240.609v49.437h12.676l.028-37.422A61.021,61.021,0,0,1,225.485,240.609Z" fill="#2e518d"/>
      </g>
      <g id="Group_38" data-name="Group 38">
        <g id="Group_36" data-name="Group 36">
          <path id="Path_90" data-name="Path 90" d="M9.031,255.028l-.571,1.36L-15.207,223.9l-9.98,9.732L9.117,270.5c2.455-5.463,13.525-28.841,30.011-45.038,12.2-11.984,22.852-18.129,28.967-21.007-7.407,1.36-21.235,5.864-36.341,20.693C14.646,241.941,9.085,254.9,9.031,255.028Z" fill="#20aee9"/>
        </g>
        <g id="Group_37" data-name="Group 37">
          <path id="Path_91" data-name="Path 91" d="M-18.141,244.479v45.567h3.661a83.191,83.191,0,0,1,8.465.275v-32.81Z" fill="#2e518d"/>
          <path id="Path_92" data-name="Path 92" d="M23.873,247.97v1.5l.085-.152v41a83.188,83.188,0,0,1,8.466-.275h3.66V231.9A134.669,134.669,0,0,0,23.873,247.97Z" fill="#2e518d"/>
        </g>
      </g>
    </g>
  </g>
</svg>
