<svg xmlns="http://www.w3.org/2000/svg" viewBox="0 0 189.95 83.05"><defs><style>.cls-1{fill:#20aee9;}.cls-2{fill:#2e518d;}</style></defs><title>Fichier 3</title><g id="Calque_2" data-name="Calque 2"><g id="Calque_1-2" data-name="Calque 1"><path class="cls-1" d="M50.37,78.1a9.46,9.46,0,0,0-1,0h-2.5v4.79H44.59v-11l.51,0,.61,0H47c1.36,0,2.65,0,3.88-.06a16.46,16.46,0,0,0-.09,1.94.84.84,0,0,0,0,.19l0,0a4.83,4.83,0,0,0-1.22-.12H46.85v2.26h2.41a5.73,5.73,0,0,0,1.09,0Z"/><path class="cls-1" d="M55.93,81.54a5.22,5.22,0,0,1-1.18-1.72,5.52,5.52,0,0,1-.44-2.21,6.35,6.35,0,0,1,.41-2.27,5.68,5.68,0,0,1,1.15-1.89,5.45,5.45,0,0,1,1.82-1.3,5.72,5.72,0,0,1,2.38-.48,5.49,5.49,0,0,1,3.84,1.43,5.37,5.37,0,0,1,1.66,4.14,5.66,5.66,0,0,1-4.23,5.62,6.48,6.48,0,0,1-1.68.19,5.55,5.55,0,0,1-3.73-1.51Zm.68-4a3.8,3.8,0,0,0,.25,1.41A3.24,3.24,0,0,0,60.06,81a3,3,0,0,0,2.31-.93,3.71,3.71,0,0,0,.89-2.63,4,4,0,0,0-.85-2.62,3,3,0,0,0-2.5-1.12,3,3,0,0,0-2.45,1.14A4.13,4.13,0,0,0,56.61,77.5Z"/><path class="cls-1" d="M73.25,78.58l-.53,0-.83,0v4.29H69.71v-11a22.45,22.45,0,0,1,2.83-.15,5.71,5.71,0,0,1,3.42.84,3.39,3.39,0,0,1,.1,5,3.61,3.61,0,0,1-.78.54L77,81.56a4.27,4.27,0,0,0,.75,1.3l0,0a12.15,12.15,0,0,0-2.51,0Zm-.55-5a7,7,0,0,0-.81,0v3.15a6.73,6.73,0,0,0,1,0,4,4,0,0,0,.92-.09,1.87,1.87,0,0,0,.64-.29A1.53,1.53,0,0,0,75,75.17a1.29,1.29,0,0,0-.62-1.23A3.35,3.35,0,0,0,72.7,73.61Z"/><path class="cls-1" d="M83.79,82.9a13.28,13.28,0,0,0-1.53-.05H81.6v-11c.35,0,.74,0,1.16,0a4.54,4.54,0,0,0,.9-.06l2.77,4.71,2.67-4.71a5.41,5.41,0,0,0,1,.06c.49,0,.91,0,1.27,0v11h-.66a13.06,13.06,0,0,0-1.53.05V75.5l-2.7,4.83-2.7-4.44Z"/><path class="cls-1" d="M97.07,82.91c-.48,0-1-.06-1.66-.06h-.65l3.58-10.06a4.34,4.34,0,0,0,.24-.79v-.15c.36,0,.74,0,1.14,0h1.2a.29.29,0,0,0,0,.09,3.5,3.5,0,0,0,.25.84l3.66,10.07h-2.46l-.78-2.38H97.84Zm3.86-4.42-1.25-3.84-1.21,3.84Z"/><path class="cls-1" d="M112.11,82.9c-.26,0-.94-.05-2-.05h-.26V73.72h-1.63a2.55,2.55,0,0,0-.86.08l-.21.13h0V71.81l0,0a6.69,6.69,0,0,0,1.47.09h5.17a2.68,2.68,0,0,0,.86-.07l.21-.13h0v2.11l0,0a6.69,6.69,0,0,0-1.47-.09h-1.24Z"/><path class="cls-1" d="M118.88,71.84l1,0h.59a3.35,3.35,0,0,0,.71-.06v11h-2.29Z"/><path class="cls-1" d="M127.18,81.54A5.07,5.07,0,0,1,126,79.82a5.52,5.52,0,0,1-.44-2.21,6.35,6.35,0,0,1,.41-2.27,5.68,5.68,0,0,1,1.15-1.89,5.45,5.45,0,0,1,1.82-1.3,5.72,5.72,0,0,1,2.38-.48,5.49,5.49,0,0,1,3.84,1.43,5.37,5.37,0,0,1,1.66,4.14,5.66,5.66,0,0,1-4.23,5.62,6.48,6.48,0,0,1-1.68.19,5.55,5.55,0,0,1-3.73-1.51Zm.68-4a3.8,3.8,0,0,0,.25,1.41A3.24,3.24,0,0,0,131.3,81a3,3,0,0,0,2.32-.93,3.71,3.71,0,0,0,.89-2.63,4,4,0,0,0-.85-2.62,3,3,0,0,0-2.5-1.12,3,3,0,0,0-2.45,1.14A4.13,4.13,0,0,0,127.86,77.5Z"/><path class="cls-1" d="M141,82.85a3.86,3.86,0,0,0,.05-.61V71.87h1.65l4.37,6.88V72.43a1.24,1.24,0,0,0-.08-.56h2.23a5.46,5.46,0,0,0-.05.73V82.85h-1.71l-4.31-6.61v6.61Z"/><rect class="cls-1" x="8.05" y="76.29" width="26.19" height="1.69"/><rect class="cls-1" x="159.27" y="76.29" width="26.19" height="1.69"/><path class="cls-2" d="M74.4,53.81a7.11,7.11,0,0,0,2.84-.4l.13,0L77,61.73H52.32V17.61q.9.06,2,.09l2.31.07c1.54,0,3.22.07,5,.07q7.56,0,14.95-.27a66.08,66.08,0,0,0-.36,7.76,3.88,3.88,0,0,0,.06.79l-.06.1a18.62,18.62,0,0,0-4.89-.5H60.94v8.42h7.82a25.72,25.72,0,0,0,4.35-.2l.1,8.15c-1-.11-2.42-.16-4.09-.16H60.94V53.81Z"/><path class="cls-2" d="M93.49,62.55a56.44,56.44,0,0,1-10.06-.86V17.54A85.36,85.36,0,0,1,93.54,17,32.5,32.5,0,0,1,104,18.58a21.09,21.09,0,0,1,7.81,4.47q6.33,5.81,6.33,16.27,0,11.72-7.06,17.79Q104.72,62.56,93.49,62.55ZM92,54.5a24,24,0,0,0,4.29.4,14.46,14.46,0,0,0,4.62-.85,11.12,11.12,0,0,0,4.29-2.62q3.9-3.76,3.89-11,0-11.8-8.61-14.52a22.08,22.08,0,0,0-6.57-.89H93c-.33,0-.67,0-1,0Z"/><path class="cls-2" d="M146.51,53.81a7.08,7.08,0,0,0,2.84-.4l.13,0-.33,8.29H124.44V17.61q.89.06,2,.09l2.31.07c1.54,0,3.21.07,5,.07q7.56,0,14.95-.27a66.08,66.08,0,0,0-.36,7.76,3.88,3.88,0,0,0,.06.79l-.06.1a18.57,18.57,0,0,0-4.89-.5H133.05v8.42h7.82a26,26,0,0,0,4.36-.2l.09,8.15c-1-.11-2.42-.16-4.09-.16h-8.18V53.81Z"/><path class="cls-2" d="M161.35,61.73q-4.84,0-6.44.19V17.64a17.12,17.12,0,0,0,3.29.2c1.66,0,3.59-.05,5.79-.14V53.81h6.83a45.51,45.51,0,0,0,4.75-.2q-.23,7.72-.23,8V62c-2.16-.16-5.77-.23-10.86-.23Z"/><path class="cls-1" d="M189.94,30.33V17.57a11.78,11.78,0,0,1-2.81.27h-2.37c-.47,0-1.8-.05-4-.14v6.37A65.22,65.22,0,0,0,189.94,30.33Z"/><path class="cls-2" d="M180.77,26.07V61.73h9.14l0-27A44,44,0,0,1,180.77,26.07Z"/><path class="cls-1" d="M24.68,36.47l-.42,1L7.2,14,0,21,24.74,47.63c1.77-3.94,9.75-20.8,21.64-32.48C55.18,6.51,62.86,2.08,67.27,0,61.93,1,52,4.23,41.06,14.92,28.73,27,24.72,36.38,24.68,36.47Z"/><path class="cls-2" d="M5.08,28.87V61.73H7.72c3,0,5.05.06,6.11.19V38.26Z"/><path class="cls-2" d="M35.38,31.38v1.09l.06-.11V61.92c1.06-.13,3.09-.19,6.11-.19h2.64V19.79A97.19,97.19,0,0,0,35.38,31.38Z"/></g></g></svg>