<svg xmlns="http://www.w3.org/2000/svg" width="25" height="23.074" viewBox="0 0 25 23.074">
  <g id="Group_7" data-name="Group 7" transform="translate(-116.985 -383.621)">
    <path id="Path_102" data-name="Path 102" d="M134.7,397.72c.1.035.234.074.39.118a1.645,1.645,0,0,0,.441.064,2.216,2.216,0,0,0,1.991-1.184,5.837,5.837,0,0,0,.716-3.056,6.689,6.689,0,0,0-.6-2.848,6.6,6.6,0,0,0-1.678-2.225,7.57,7.57,0,0,0-2.589-1.443,11.062,11.062,0,0,0-7.088.156,8.671,8.671,0,0,0-2.927,1.846,8.294,8.294,0,0,0-1.9,2.811,9.128,9.128,0,0,0-.676,3.55,8.9,8.9,0,0,0,.6,3.342,7.374,7.374,0,0,0,1.664,2.551,7.221,7.221,0,0,0,2.537,1.612,9.038,9.038,0,0,0,3.239.56,14.367,14.367,0,0,0,1.885-.1c.512-.069.94-.14,1.288-.208a3.3,3.3,0,0,1,.311.65,2.085,2.085,0,0,1,.13.7,1.979,1.979,0,0,1-.182.871,1.6,1.6,0,0,1-.623.652,3.592,3.592,0,0,1-1.2.416,10.588,10.588,0,0,1-1.9.142,13.887,13.887,0,0,1-4.176-.65,10.8,10.8,0,0,1-3.706-2.015A10.206,10.206,0,0,1,118,400.556a11.539,11.539,0,0,1-1.016-5.047,11.96,11.96,0,0,1,.99-4.943,10.693,10.693,0,0,1,2.744-3.746,12.436,12.436,0,0,1,4.15-2.367,16.659,16.659,0,0,1,10.027-.118,11.266,11.266,0,0,1,3.772,2.03,9.126,9.126,0,0,1,2.445,3.172,9.667,9.667,0,0,1,.872,4.15,7.864,7.864,0,0,1-1.665,5.371,6.045,6.045,0,0,1-4.788,1.887,6.809,6.809,0,0,1-1.69-.234,5.925,5.925,0,0,1-1.665-.7,5.468,5.468,0,0,1-1.4.585,6.792,6.792,0,0,1-1.795.222,6.407,6.407,0,0,1-2.134-.338,4.635,4.635,0,0,1-1.664-1,4.431,4.431,0,0,1-1.08-1.626,5.951,5.951,0,0,1-.378-2.185,6.777,6.777,0,0,1,.469-2.563,5.712,5.712,0,0,1,3.342-3.276,8.118,8.118,0,0,1,5.047-.1,8.393,8.393,0,0,1,1.7.793,2.443,2.443,0,0,1,.767.741,1.653,1.653,0,0,1,.274.9c0,.1,0,.2-.014.3s-.022.187-.038.274Zm-7.024-2.055a1.842,1.842,0,0,0,1.95,2.133,2.4,2.4,0,0,0,1.484-.468l.442-4.526a2.758,2.758,0,0,0-.586-.208,3.734,3.734,0,0,0-.846-.078,2.221,2.221,0,0,0-1.742.806A3.464,3.464,0,0,0,127.678,395.665Z" transform="translate(0 0)" fill="#fff"/>
  </g>
</svg>
