<svg xmlns="http://www.w3.org/2000/svg" width="27.266" height="31.762" viewBox="0 0 27.266 31.762">
  <g id="Group_6" data-name="Group 6" transform="translate(-37.905 -18.659) rotate(-20)">
    <path id="Path_97" data-name="Path 97" d="M32.861,36.525s-5.894.077-5.817,5.415S28.192,52,29.952,54.63s6.276,9.517,11.4,8.821a15.4,15.4,0,0,0,4.439-1.78L39.6,56.8s-1.837,1.161-2.985-.387-4.745-8.743-4.745-8.743a2.507,2.507,0,0,1,1.224-3.327Z" fill="#fff"/>
    <path id="Path_98" data-name="Path 98" d="M33.55,36.525a1.776,1.776,0,0,1,1.3.309c.841.464.841.851.841.851l.077,5.339a6.485,6.485,0,0,1-.536.619c-.306.309-1.3.774-1.454.464S33.55,36.525,33.55,36.525Z" fill="#fff"/>
    <path id="Path_99" data-name="Path 99" d="M40.111,56.226l1.7-.9a1.5,1.5,0,0,1,1,.309c.612.388,3.827,2.942,3.827,2.942a1.111,1.111,0,0,1,.383,1.005c-.153.542-.536,1.7-.536,1.7Z" fill="#fff"/>
  </g>
</svg>
