<svg xmlns="http://www.w3.org/2000/svg" width="26.95" height="26.95" viewBox="0 0 26.95 26.95">
  <g id="Group_141" data-name="Group 141" transform="translate(-186.525 -186.525)">
    <path id="Path_143" data-name="Path 143" d="M209.528,190.472A13.474,13.474,0,1,0,213.475,200,13.385,13.385,0,0,0,209.528,190.472ZM200,210.706A10.706,10.706,0,1,1,210.707,200,10.719,10.719,0,0,1,200,210.706Z" fill="#20aee9"/>
    <path id="Path_144" data-name="Path 144" d="M205.639,199.976l-4.11-.281-.427-6.28a1.1,1.1,0,0,0-2.194,0l-.414,6.074-.1-.007a1.047,1.047,0,0,0-.76.271,1.021,1.021,0,0,0-.319.738v.989a1,1,0,0,0,.977,1,1.112,1.112,0,0,0,.295.765,1.1,1.1,0,0,0,.8.35h1.23a1.1,1.1,0,0,0,1.1-1.1c0-.008-.006-.108-.015-.239l3.938-.268a1.011,1.011,0,0,0,0-2.017Z" fill="#20aee9"/>
  </g>
</svg>
