<svg xmlns="http://www.w3.org/2000/svg" width="35.164" height="23.559" viewBox="0 0 35.164 23.559">
  <g id="Group_125" data-name="Group 125" transform="translate(-593.786 -793.784)">
    <path id="Path_135" data-name="Path 135" d="M615.587,809.07c-1.613,1.146-2.686,1.908-4.14,1.908h-.066c-1.466-.023-2.519-.811-4.112-2a16.729,16.729,0,0,1-2.607-2.426l-10.227,10.368.558.425h32.576l.71-.451-10-10.212A16.786,16.786,0,0,1,615.587,809.07Z" fill="#20aee9"/>
    <path id="Path_136" data-name="Path 136" d="M593.786,796.286v17.945l9.528-9.028Z" fill="#20aee9"/>
    <path id="Path_137" data-name="Path 137" d="M609.041,807.721a4.387,4.387,0,0,0,2.295.872,4.714,4.714,0,0,0,1.874-.377c1.693-.734,7.528-6.372,14.555-14.058l-.294-.374H595.292l-.462.408C602.616,802.11,607.649,806.752,609.041,807.721Z" fill="#20aee9"/>
    <path id="Path_138" data-name="Path 138" d="M628.951,814.22V796.3l-9.28,8.959Z" fill="#20aee9"/>
  </g>
</svg>
